<svg width="869" height="692" viewBox="0 0 869 692" fill="none" xmlns="http://www.w3.org/2000/svg">
<path d="M562.702 440.994C562.702 436.399 566.425 432.673 571.018 432.673H860.684C865.277 432.673 869 436.399 869 440.994V683.679C869 688.275 865.277 692 860.684 692H571.018C566.425 692 562.702 688.275 562.702 683.679V440.994Z" fill="#5059BC"/>
<path d="M562.702 440.994C562.702 436.399 566.425 432.673 571.018 432.673H860.684C865.277 432.673 869 436.399 869 440.994V683.679C869 688.275 865.277 692 860.684 692H571.018C566.425 692 562.702 688.275 562.702 683.679V440.994Z" fill="url(#paint0_linear_82_16159)"/>
<path d="M594.579 8.32064C594.579 3.72528 598.302 0 602.895 0H845.439C850.031 0 853.754 3.72528 853.754 8.32064V226.044C853.754 230.639 850.031 234.365 845.439 234.365H602.895C598.302 234.365 594.579 230.639 594.579 226.044V8.32064Z" fill="#C8D29C"/>
<path d="M594.579 8.32064C594.579 3.72528 598.302 0 602.895 0H845.439C850.031 0 853.754 3.72528 853.754 8.32064V226.044C853.754 230.639 850.031 234.365 845.439 234.365H602.895C598.302 234.365 594.579 230.639 594.579 226.044V8.32064Z" fill="url(#paint1_linear_82_16159)"/>
<path d="M0 255.166C0 250.571 3.72311 246.846 8.31579 246.846H285.509C290.101 246.846 293.825 250.571 293.825 255.166V500.625C293.825 505.221 290.101 508.946 285.509 508.946H8.31579C3.72311 508.946 0 505.221 0 500.625V255.166Z" fill="#C8D29C"/>
<path d="M0 255.166C0 250.571 3.72311 246.846 8.31579 246.846H285.509C290.101 246.846 293.825 250.571 293.825 255.166V500.625C293.825 505.221 290.101 508.946 285.509 508.946H8.31579C3.72311 508.946 0 505.221 0 500.625V255.166Z" fill="url(#paint2_linear_82_16159)"/>
<path d="M246.702 109.555C246.702 104.96 250.425 101.234 255.018 101.234H643.088C647.68 101.234 651.404 104.96 651.404 109.555V386.91C651.404 391.505 647.68 395.23 643.088 395.23H255.018C250.425 395.23 246.702 391.505 246.702 386.91V109.555Z" fill="#F26DF9"/>
<path d="M246.702 109.555C246.702 104.96 250.425 101.234 255.018 101.234H643.088C647.68 101.234 651.404 104.96 651.404 109.555V386.91C651.404 391.505 647.68 395.23 643.088 395.23H255.018C250.425 395.23 246.702 391.505 246.702 386.91V109.555Z" fill="url(#paint3_linear_82_16159)"/>
<path d="M374.211 270.421C374.211 265.825 377.934 262.1 382.526 262.1H514.193C518.786 262.1 522.509 265.825 522.509 270.421V359.174C522.509 363.77 518.786 367.495 514.193 367.495H382.526C377.934 367.495 374.211 363.77 374.211 359.174V270.421Z" fill="#F9FAFB"/>
<path fill-rule="evenodd" clip-rule="evenodd" d="M457.08 296.326C457.601 294.886 456.856 293.296 455.417 292.774C453.977 292.253 452.388 292.998 451.867 294.438L438.069 332.574C437.548 334.015 438.292 335.605 439.731 336.126C441.171 336.648 442.76 335.903 443.281 334.463L457.08 296.326ZM433.704 298.312C434.829 299.351 434.899 301.106 433.861 302.232L422.333 314.727L433.861 327.223C434.899 328.348 434.829 330.103 433.704 331.142C432.579 332.181 430.825 332.111 429.787 330.985L417.392 317.549C415.921 315.955 415.921 313.499 417.392 311.905L429.787 298.469C430.825 297.343 432.579 297.273 433.704 298.312ZM462.549 298.312C461.424 299.351 461.354 301.106 462.392 302.232L473.92 314.727L462.392 327.223C461.354 328.348 461.424 330.103 462.549 331.142C463.674 332.181 465.428 332.111 466.466 330.985L478.861 317.549C480.332 315.955 480.332 313.499 478.861 311.905L466.466 298.469C465.428 297.343 463.674 297.273 462.549 298.312Z" fill="#111928"/>
<path d="M401.93 146.998C401.93 142.403 405.653 138.677 410.246 138.677H541.912C546.505 138.677 550.228 142.403 550.228 146.998V235.752C550.228 240.347 546.505 244.072 541.912 244.072H410.246C405.653 244.072 401.93 240.347 401.93 235.752V146.998Z" fill="#F9FAFB"/>
<path fill-rule="evenodd" clip-rule="evenodd" d="M479.173 166.412C477.847 165.647 476.152 166.101 475.387 167.428L473.308 171.031C472.667 172.141 472.881 173.511 473.746 174.377L461.61 187.819C460.583 188.956 460.153 190.511 460.45 192.014L464.145 210.708C464.565 212.833 466.809 214.056 468.821 213.258L485.778 206.529C487.124 205.995 488.161 204.888 488.606 203.509L494.198 186.192C495.38 186.508 496.672 186.009 497.313 184.898L499.392 181.295C500.158 179.969 499.703 178.273 498.378 177.507L479.173 166.412ZM464.695 190.608L475.939 178.155L489.832 186.18L484.649 202.23C484.586 202.427 484.437 202.585 484.245 202.662L471.295 207.801L475.92 199.784C478.626 200.342 481.5 199.145 482.957 196.62C484.777 193.466 483.697 189.432 480.544 187.611C477.391 185.79 473.36 186.87 471.54 190.025C470.083 192.55 470.484 195.638 472.319 197.704L467.473 206.103L464.529 191.207C464.487 190.992 464.548 190.77 464.695 190.608ZM479.356 194.54C478.684 195.705 477.196 196.104 476.032 195.431C474.868 194.759 474.469 193.27 475.141 192.105C475.813 190.94 477.301 190.541 478.465 191.214C479.629 191.886 480.028 193.375 479.356 194.54Z" fill="#111928"/>
<path d="M632 692L637.578 606.771L735.198 599.086L744.263 692H632Z" fill="#00203A"/>
<path d="M632 692L637.578 606.771L735.198 599.086L744.263 692H632Z" fill="url(#paint4_linear_82_16159)"/>
<path d="M691.596 646.236L686.053 692H699.219L691.596 646.236Z" fill="url(#paint5_linear_82_16159)"/>
<path fill-rule="evenodd" clip-rule="evenodd" d="M699.912 626.822V645.543C699.912 653.585 706.428 660.104 714.465 660.104C722.502 660.104 729.018 653.585 729.018 645.543V626.822H699.912ZM699.423 624.048C698.162 624.048 697.14 625.071 697.14 626.332V645.543C697.14 655.117 704.897 662.878 714.465 662.878C724.033 662.878 731.79 655.117 731.79 645.543V626.332C731.79 625.071 730.767 624.048 729.507 624.048H699.423Z" fill="#C3DDFD" fill-opacity="0.4"/>
<path fill-rule="evenodd" clip-rule="evenodd" d="M655.561 626.822V646.93C655.561 654.206 661.456 660.104 668.728 660.104C676 660.104 681.895 654.206 681.895 646.93V626.822H655.561ZM655.072 624.048C653.812 624.048 652.789 625.071 652.789 626.332V646.93C652.789 655.738 659.925 662.878 668.728 662.878C677.531 662.878 684.667 655.738 684.667 646.93V626.332C684.667 625.071 683.645 624.048 682.384 624.048H655.072Z" fill="#C3DDFD" fill-opacity="0.4"/>
<path d="M634.772 603.246H741.491V607.407C741.491 608.939 740.25 610.18 738.719 610.18H637.544C636.013 610.18 634.772 608.939 634.772 607.407V603.246Z" fill="#F9FAFB"/>
<path d="M634.772 603.246H741.491V607.407C741.491 608.939 740.25 610.18 738.719 610.18H637.544C636.013 610.18 634.772 608.939 634.772 607.407V603.246Z" fill="url(#paint6_linear_82_16159)"/>
<path d="M519.737 339.759C533.042 341.423 540.526 363.103 542.605 373.735L530.132 384.136C528.515 379.514 524.172 369.02 519.737 364.028C514.193 357.787 503.105 337.679 519.737 339.759Z" fill="#FDBA8C"/>
<path d="M519.737 339.759C533.042 341.423 540.526 363.103 542.605 373.735L530.132 384.136C528.515 379.514 524.172 369.02 519.737 364.028C514.193 357.787 503.105 337.679 519.737 339.759Z" fill="url(#paint7_linear_82_16159)"/>
<path d="M543.049 368.342L525.118 374.867C523.678 375.391 522.936 376.985 523.462 378.425L567.968 500.303C572.075 511.551 583.959 517.931 595.597 515.136L627.149 507.559L631.192 600.594C631.256 602.077 632.477 603.247 633.961 603.247H741.388C742.958 603.247 744.216 601.954 744.149 600.384C743.014 573.918 738.677 519.411 733.868 491.611C727.68 455.835 714.668 456.923 706.343 457.619L706.149 457.636C697.833 458.329 690.211 454.862 679.816 453.475C671.5 452.366 621.374 465.494 597.351 472.197L546.479 369.715C545.852 368.451 544.375 367.86 543.049 368.342Z" fill="#F9FAFB"/>
<path d="M543.049 368.342L525.118 374.867C523.678 375.391 522.936 376.985 523.462 378.425L567.968 500.303C572.075 511.551 583.959 517.931 595.597 515.136L627.149 507.559L631.192 600.594C631.256 602.077 632.477 603.247 633.961 603.247H741.388C742.958 603.247 744.216 601.954 744.149 600.384C743.014 573.918 738.677 519.411 733.868 491.611C727.68 455.835 714.668 456.923 706.343 457.619L706.149 457.636C697.833 458.329 690.211 454.862 679.816 453.475C671.5 452.366 621.374 465.494 597.351 472.197L546.479 369.715C545.852 368.451 544.375 367.86 543.049 368.342Z" fill="url(#paint8_linear_82_16159)"/>
<path fill-rule="evenodd" clip-rule="evenodd" d="M677.165 603.247L658.333 499.932L625.155 508.038L627.149 507.559L631.191 600.594C631.256 602.077 632.477 603.247 633.961 603.247H677.165Z" fill="url(#paint9_linear_82_16159)"/>
<path d="M733.909 491.858C734.062 492.745 734.214 493.658 734.365 494.597C716.256 498.504 702.684 514.619 702.684 533.907C702.684 556.025 720.528 573.97 742.598 574.12C742.664 575.054 742.728 575.979 742.791 576.896C719.102 576.849 699.912 557.621 699.912 533.907C699.912 513.242 714.485 495.985 733.909 491.858Z" fill="#5059BC"/>
<path d="M707.535 372.349C692.012 375.123 693.213 386.448 695.754 391.764V412.565C699.912 413.952 708.089 418.251 707.535 424.353C706.98 430.454 712.386 437.989 715.158 440.994C721.395 425.739 738.026 422.966 744.263 407.711C749.253 395.508 742.184 391.995 738.026 391.764C738.719 381.363 726.938 368.882 707.535 372.349Z" fill="#111928"/>
<path d="M683.281 461.795L691.596 429.206L712.386 422.966L715.158 440.994L713.772 463.182L683.281 461.795Z" fill="#FDBA8C"/>
<path d="M683.281 461.795L691.596 429.206L712.386 422.966L715.158 440.994L713.772 463.182L683.281 461.795Z" fill="url(#paint10_linear_82_16159)"/>
<path d="M715.851 413.258C717.93 427.82 681.202 441.687 681.202 423.659C681.202 420.006 681.973 416.245 683.221 412.565C683.537 411.634 681.522 412.096 681.895 411.178C682.37 410.007 685.248 407.463 685.798 406.325C689.834 397.963 695.611 390.659 699.219 386.91C698.295 397.542 698.249 417.696 705.456 413.258C712.663 408.821 715.389 411.409 715.851 413.258Z" fill="#FDBA8C"/>
<path d="M694.652 405.381C694.541 406.17 693.813 406.719 693.024 406.608C692.236 406.497 691.687 405.768 691.798 404.979C691.909 404.19 692.638 403.641 693.426 403.752C694.214 403.863 694.763 404.592 694.652 405.381Z" fill="#111928"/>
<path fill-rule="evenodd" clip-rule="evenodd" d="M694.137 399.734C693.45 399.59 692.733 399.817 691.932 400.262C691.598 400.448 691.176 400.327 690.99 399.992C690.804 399.657 690.925 399.235 691.26 399.049C692.149 398.555 693.237 398.128 694.423 398.377C695.623 398.63 696.73 399.533 697.764 401.247C697.962 401.575 697.856 402.001 697.528 402.199C697.201 402.397 696.775 402.292 696.577 401.964C695.645 400.418 694.81 399.876 694.137 399.734Z" fill="#111928"/>
<path fill-rule="evenodd" clip-rule="evenodd" d="M688.787 403.084C689.074 403.339 689.1 403.777 688.846 404.063L682.517 411.198C682.404 411.326 682.437 411.525 682.585 411.609L686.136 413.629C686.469 413.818 686.585 414.241 686.396 414.574C686.207 414.907 685.784 415.024 685.451 414.834L681.9 412.815C680.986 412.295 680.783 411.065 681.481 410.278L687.809 403.143C688.063 402.856 688.501 402.83 688.787 403.084Z" fill="#111928"/>
<path fill-rule="evenodd" clip-rule="evenodd" d="M686.334 420.574C687.425 420.909 688.532 420.7 689.44 420.054C689.752 419.832 690.184 419.905 690.406 420.217C690.628 420.529 690.555 420.962 690.243 421.184C689.003 422.066 687.453 422.367 685.928 421.9C684.407 421.435 682.99 420.231 681.934 418.25C681.754 417.912 681.882 417.492 682.219 417.312C682.557 417.132 682.977 417.259 683.157 417.597C684.081 419.332 685.239 420.239 686.334 420.574Z" fill="#111928"/>
<path fill-rule="evenodd" clip-rule="evenodd" d="M710.919 417.471C711.469 416.613 711.566 415.685 711.49 414.698C711.461 414.316 711.747 413.983 712.129 413.954C712.51 413.924 712.843 414.21 712.872 414.592C712.959 415.733 712.864 417.007 712.086 418.22C711.312 419.427 709.929 420.471 707.653 421.304C707.293 421.435 706.896 421.25 706.764 420.891C706.633 420.531 706.818 420.133 707.177 420.001C709.284 419.23 710.365 418.335 710.919 417.471Z" fill="#111928"/>
<path d="M691.597 234.365L660.412 216.337L673.579 177.507C673.316 143.255 680.043 100.863 708.921 95.6877C746.065 89.0312 762.281 185.366 765.746 234.365H691.597Z" fill="#00203A"/>
<path fill-rule="evenodd" clip-rule="evenodd" d="M686.746 135.904L673.58 177.507C673.473 163.635 674.514 148.428 677.708 134.899L686.746 135.904Z" fill="url(#paint11_linear_82_16159)"/>
<path d="M709.314 225.594L686.053 221.19L687.439 234.365H740.105L726.939 180.281L712.459 223.746C712.02 225.062 710.677 225.852 709.314 225.594Z" fill="url(#paint12_linear_82_16159)"/>
<path d="M577.948 192.762C586.263 196.09 628.073 209.865 661.106 216.337L700.605 223.964C696.678 233.44 685.498 252.809 672.193 254.473C655.561 256.553 575.869 207.323 550.228 204.549C524.588 201.776 515.579 185.134 524.588 181.667C531.795 178.894 544.684 182.823 550.228 185.134V178.894C554.386 180.974 567.553 188.601 577.948 192.762Z" fill="#FDBA8C"/>
<path d="M577.948 192.762C586.263 196.09 628.073 209.865 661.106 216.337L700.605 223.964C696.678 233.44 685.498 252.809 672.193 254.473C655.561 256.553 575.869 207.323 550.228 204.549C524.588 201.776 515.579 185.134 524.588 181.667C531.795 178.894 544.684 182.823 550.228 185.134V178.894C554.386 180.974 567.553 188.601 577.948 192.762Z" fill="url(#paint13_linear_82_16159)"/>
<path d="M662.491 22.8811C648.077 33.4206 653.251 44.3761 657.64 48.5364L698.526 78.3528C698.988 70.4944 700.051 52.0041 700.605 40.9099C701.16 29.8157 694.83 27.9662 691.597 28.4282C687.901 22.1877 676.905 12.3416 662.491 22.8811Z" fill="#F9FAFB"/>
<path d="M698.526 108.168L681.202 81.8197L691.597 57.5511L713.079 96.3808C710.861 102.483 702.453 106.782 698.526 108.168Z" fill="#FDBA8C"/>
<path d="M698.526 108.168L681.202 81.8197L691.597 57.5511L713.079 96.3808C710.861 102.483 702.453 106.782 698.526 108.168Z" fill="url(#paint14_linear_82_16159)"/>
<path d="M692.29 47.8437C696.447 49.9239 690.904 91.5271 674.272 88.0602C668.758 86.9108 664.958 81.9118 662.399 75.5792C662.124 74.9001 660.785 75.5924 660.538 74.8858C660.144 73.7571 660.865 71.2105 660.538 70.0321C658.376 62.2251 657.64 53.6036 657.64 47.8437C670.807 42.2962 679.816 56.1644 681.895 54.7776C683.974 53.3908 688.132 45.7636 692.29 47.8437Z" fill="#FDBA8C"/>
<path d="M666.779 62.4111C667.184 63.0971 666.956 63.9812 666.27 64.3858C665.585 64.7904 664.701 64.5623 664.297 63.8764C663.892 63.1904 664.12 62.3063 664.806 61.9017C665.492 61.4971 666.375 61.7252 666.779 62.4111Z" fill="#111928"/>
<path fill-rule="evenodd" clip-rule="evenodd" d="M664.947 57.9504C663.893 58.1114 663.106 58.6623 662.398 59.3742C662.127 59.6456 661.689 59.6466 661.417 59.3764C661.146 59.1062 661.145 58.6672 661.415 58.3958C662.235 57.572 663.278 56.8024 664.737 56.5795C666.188 56.3579 667.938 56.6931 670.148 57.8388C670.487 58.015 670.62 58.4335 670.444 58.7735C670.268 59.1135 669.85 59.2463 669.51 59.0701C667.457 58.0054 666.01 57.788 664.947 57.9504Z" fill="#111928"/>
<path fill-rule="evenodd" clip-rule="evenodd" d="M660.762 64.2717C661.144 64.2921 661.437 64.6185 661.417 65.001L660.911 74.5273C660.902 74.6974 661.051 74.8327 661.22 74.8062L665.255 74.1719C665.633 74.1125 665.987 74.371 666.047 74.7493C666.106 75.1276 665.848 75.4825 665.47 75.5419L661.435 76.1762C660.396 76.3395 659.471 75.5042 659.527 74.4537L660.033 64.9273C660.053 64.5449 660.379 64.2514 660.762 64.2717Z" fill="#111928"/>
<path fill-rule="evenodd" clip-rule="evenodd" d="M671.455 80.0839C672.482 79.6583 673.209 78.7343 673.494 77.5035C673.58 77.1304 673.953 76.8981 674.325 76.9846C674.698 77.0711 674.93 77.4436 674.844 77.8167C674.475 79.41 673.491 80.7413 671.985 81.3652C670.481 81.9882 668.587 81.8532 666.489 80.7902C666.147 80.6172 666.011 80.2 666.184 79.8584C666.356 79.5167 666.773 79.38 667.115 79.553C668.963 80.4892 670.425 80.5104 671.455 80.0839Z" fill="#111928"/>
<path fill-rule="evenodd" clip-rule="evenodd" d="M690.382 55.6946C690.278 54.6805 689.775 53.8947 689.102 53.1694C688.841 52.8889 688.857 52.4502 689.138 52.1895C689.418 51.9288 689.856 51.9448 690.117 52.2253C690.895 53.0631 691.614 54.1192 691.761 55.553C691.907 56.9793 691.476 58.6588 690.215 60.7287C690.015 61.0557 689.589 61.1592 689.262 60.9598C688.935 60.7605 688.832 60.3338 689.031 60.0068C690.199 58.0902 690.487 56.7161 690.382 55.6946Z" fill="#111928"/>
<path d="M165.33 413.435L150.037 406.854L142.754 428.791L165.33 436.834L202.469 381.263L243.979 327.885C266.798 312.024 249.95 309.458 238.881 314.723C227.812 319.988 185.235 382.725 165.33 413.435Z" fill="#FDBA8C"/>
<path d="M165.33 413.435L150.037 406.854L142.754 428.791L165.33 436.834L202.469 381.263L243.979 327.885C266.798 312.024 249.95 309.458 238.881 314.723C227.812 319.988 185.235 382.725 165.33 413.435Z" fill="url(#paint15_linear_82_16159)"/>
<path d="M235.614 303.703H286.895V326.585C286.895 340.754 275.415 352.24 261.254 352.24C247.094 352.24 235.614 340.754 235.614 326.585V303.703Z" fill="#111928"/>
<path fill-rule="evenodd" clip-rule="evenodd" d="M236.144 226.737C232.146 226.737 229.673 228.258 228.6 230.73C227.563 233.118 227.933 236.189 229.089 239.126C230.254 242.084 232.263 245.033 234.703 247.251C237.136 249.461 240.067 251.006 243.074 251.006C244.458 251.006 245.668 250.79 246.736 250.409C247.066 252.253 247.372 254.167 247.654 256.132C249.935 271.977 250.696 291.01 250.696 303.703H252.082C252.082 290.973 251.32 271.869 249.026 255.934C248.725 253.84 248.397 251.797 248.039 249.828C248.702 249.47 249.303 249.041 249.853 248.559C251.509 247.11 252.683 245.197 253.723 243.376C253.877 243.108 254.027 242.842 254.175 242.58L254.175 242.58C255.053 241.024 255.859 239.596 256.845 238.487C257.907 237.292 259.131 236.523 260.826 236.45C262.521 236.523 263.745 237.292 264.807 238.487C265.793 239.596 266.599 241.024 267.477 242.58L267.477 242.58C267.625 242.842 267.775 243.108 267.929 243.376C268.969 245.197 270.143 247.11 271.799 248.559C272.349 249.041 272.95 249.47 273.613 249.828C273.255 251.797 272.927 253.84 272.626 255.934C270.332 271.869 269.57 290.973 269.57 303.703H270.956C270.956 291.01 271.717 271.977 273.998 256.132C274.28 254.167 274.586 252.253 274.916 250.409C275.984 250.79 277.194 251.006 278.578 251.006C281.585 251.006 284.516 249.461 286.949 247.251C289.389 245.033 291.398 242.084 292.563 239.126C293.719 236.189 294.089 233.118 293.052 230.73C291.979 228.258 289.506 226.737 285.508 226.737C283.715 226.737 282.158 227.679 280.828 229.211C279.503 230.737 278.348 232.906 277.335 235.522C275.971 239.042 274.831 243.453 273.882 248.383C273.463 248.125 273.074 247.834 272.711 247.516C271.248 246.234 270.171 244.507 269.132 242.688C268.987 242.434 268.842 242.177 268.697 241.92L268.697 241.919C267.825 240.373 266.936 238.795 265.843 237.566C264.636 236.207 263.14 235.221 261.091 235.077V235.058C261.002 235.058 260.913 235.06 260.826 235.063C260.739 235.06 260.65 235.058 260.561 235.058V235.077C258.512 235.221 257.016 236.207 255.809 237.566C254.716 238.795 253.827 240.373 252.955 241.919L252.955 241.92C252.81 242.177 252.665 242.434 252.52 242.688C251.481 244.507 250.404 246.234 248.941 247.516C248.577 247.834 248.189 248.125 247.77 248.383C246.821 243.453 245.681 239.042 244.317 235.522C243.304 232.906 242.149 230.737 240.824 229.211C239.494 227.679 237.937 226.737 236.144 226.737ZM243.025 236.024C244.385 239.534 245.528 243.994 246.481 249.025C245.51 249.402 244.39 249.619 243.074 249.619C240.537 249.619 237.924 248.304 235.635 246.224C233.354 244.151 231.466 241.38 230.379 238.618C229.282 235.833 229.046 233.184 229.871 231.282C230.661 229.464 232.519 228.124 236.144 228.124C237.4 228.124 238.606 228.772 239.778 230.12C240.953 231.474 242.038 233.476 243.025 236.024ZM278.627 236.024C277.267 239.534 276.124 243.994 275.171 249.025C276.142 249.402 277.262 249.619 278.578 249.619C281.115 249.619 283.728 248.304 286.017 246.224C288.298 244.151 290.186 241.38 291.273 238.618C292.37 235.833 292.606 233.184 291.781 231.282C290.991 229.464 289.133 228.124 285.508 228.124C284.252 228.124 283.046 228.772 281.874 230.12C280.699 231.474 279.614 233.476 278.627 236.024Z" fill="#00203A"/>
<path fill-rule="evenodd" clip-rule="evenodd" d="M286.895 303.703C286.895 281.722 301.954 262.781 313.596 244.14C319.511 234.668 322.93 223.475 322.93 211.483C322.93 177.401 295.317 149.771 261.254 149.771C227.192 149.771 199.579 177.401 199.579 211.483C199.579 223.475 202.998 234.668 208.913 244.14C220.554 262.781 235.614 281.722 235.614 303.703H286.895Z" fill="url(#paint16_linear_82_16159)"/>
<path fill-rule="evenodd" clip-rule="evenodd" d="M286.895 303.703C286.895 281.722 301.954 262.781 313.596 244.14C319.511 234.668 322.93 223.475 322.93 211.483C322.93 177.401 295.317 149.771 261.254 149.771C227.192 149.771 199.579 177.401 199.579 211.483C199.579 223.475 202.998 234.668 208.913 244.14C220.554 262.781 235.614 281.722 235.614 303.703H286.895Z" fill="url(#paint17_linear_82_16159)"/>
<path fill-rule="evenodd" clip-rule="evenodd" d="M286.895 303.703C286.895 285.218 297.545 268.883 307.857 253.067C309.807 250.077 311.745 247.104 313.596 244.14C319.511 234.668 322.93 223.475 322.93 211.483C322.93 177.401 295.317 149.771 261.254 149.771C227.192 149.771 199.579 177.401 199.579 211.483C199.579 223.475 202.998 234.668 208.913 244.14C210.764 247.104 212.702 250.077 214.652 253.067C224.964 268.883 235.614 285.218 235.614 303.703H286.895ZM285.528 302.317C285.829 291.535 289.6 281.522 294.656 272.017C298.245 265.271 302.54 258.683 306.739 252.243C308.68 249.266 310.6 246.32 312.421 243.405C318.202 234.147 321.544 223.208 321.544 211.483C321.544 178.167 294.551 151.158 261.254 151.158C227.957 151.158 200.965 178.167 200.965 211.483C200.965 223.208 204.306 234.147 210.088 243.405C211.909 246.32 213.829 249.266 215.77 252.243C219.969 258.683 224.264 265.271 227.852 272.017C232.908 281.522 236.68 291.535 236.981 302.317H285.528Z" fill="url(#paint18_linear_82_16159)"/>
<path d="M164.93 425.74L154.535 422.273L143.447 450.008C149.684 453.937 165.9 459.161 180.868 448.621C199.579 435.447 228.684 344.613 242.544 337.679C256.404 330.745 260.561 318.265 256.404 317.572C252.246 316.878 242.544 319.652 232.842 329.359C225.081 337.125 184.333 396.849 164.93 425.74Z" fill="#FDBA8C"/>
<path d="M164.93 425.74L154.535 422.273L143.447 450.008C149.684 453.937 165.9 459.161 180.868 448.621C199.579 435.447 228.684 344.613 242.544 337.679C256.404 330.745 260.561 318.265 256.404 317.572C252.246 316.878 242.544 319.652 232.842 329.359C225.081 337.125 184.333 396.849 164.93 425.74Z" fill="url(#paint19_linear_82_16159)"/>
<path d="M154.535 460.493V407.335C154.535 406.29 153.948 405.333 153.017 404.861L105.333 380.669L85.2368 386.216C67.4965 391.209 54.7456 470.116 50.5877 508.946H140.675V461.102L151.22 463.212C152.935 463.555 154.535 462.243 154.535 460.493Z" fill="#F9FAFB"/>
<path d="M95.6316 508.946L104.64 453.475L140.675 461.009V508.946H95.6316Z" fill="url(#paint20_linear_82_16159)"/>
<path d="M114.342 407.711L154.535 422.272V405.631L130.974 393.844L114.342 407.711Z" fill="url(#paint21_linear_82_16159)"/>
<path d="M72.0706 305.784C92.0285 300.791 97.018 315.26 97.018 323.118L86.6228 357.094C79.0002 358.712 61.6759 360.422 53.3601 354.321C42.9654 346.693 47.1233 312.024 72.0706 305.784Z" fill="#111928"/>
<path d="M56.8246 313.411C56.8246 326.431 46.2758 336.986 33.2632 336.986C20.2506 336.986 9.70175 326.431 9.70175 313.411C9.70175 300.391 20.2506 289.836 33.2632 289.836C46.2758 289.836 56.8246 300.391 56.8246 313.411Z" fill="#111928"/>
<path d="M85.2368 386.216C84.1281 376.232 77.845 359.405 74.8421 352.24L95.6316 354.321L105.333 380.669C99.7895 386.771 89.6257 386.91 85.2368 386.216Z" fill="#FDBA8C"/>
<path d="M85.2368 386.216C84.1281 376.232 77.845 359.405 74.8421 352.24L95.6316 354.321L105.333 380.669C99.7895 386.771 89.6257 386.91 85.2368 386.216Z" fill="url(#paint22_linear_82_16159)"/>
<path d="M76.2283 355.014C86.623 361.254 108.798 366.108 110.877 351.547C111.438 347.619 110.229 342.951 108.105 338.195C107.823 337.562 109.111 337.621 108.798 336.986C108.341 336.06 106.266 334.44 105.755 333.519C101.444 325.748 95.4299 318.318 91.4739 314.104C90.7807 317.109 89.3943 327.351 89.3943 334.212C89.3943 342.533 85.9298 345.307 79.0002 345.307C73.2857 345.307 65.8336 348.773 76.2283 355.014Z" fill="#FDBA8C"/>
<path d="M94.5821 331.891C94.5919 332.687 95.2451 333.325 96.0409 333.315C96.8368 333.305 97.4741 332.652 97.4643 331.856C97.4545 331.059 96.8014 330.422 96.0055 330.431C95.2096 330.441 94.5723 331.095 94.5821 331.891Z" fill="#111928"/>
<path fill-rule="evenodd" clip-rule="evenodd" d="M109.456 341.572L98.7739 345.84C101.714 349.136 105.681 350.578 110.931 347.867C110.738 345.865 110.218 343.745 109.456 341.572Z" fill="white"/>
<path fill-rule="evenodd" clip-rule="evenodd" d="M94.6829 326.459C95.6722 326.216 96.5809 326.424 97.4904 326.815C97.8422 326.966 98.2496 326.803 98.4005 326.451C98.5514 326.099 98.3886 325.691 98.0368 325.54C96.9863 325.089 95.7504 324.768 94.3517 325.113C92.9603 325.455 91.5252 326.427 90.0022 328.313C89.7617 328.611 89.808 329.047 90.1056 329.288C90.4033 329.529 90.8396 329.482 91.0802 329.185C92.4903 327.439 93.6864 326.705 94.6829 326.459Z" fill="#111928"/>
<path fill-rule="evenodd" clip-rule="evenodd" d="M102.106 328.569C101.806 328.806 101.754 329.242 101.99 329.543L107.888 337.038C107.993 337.172 107.949 337.369 107.796 337.445L104.132 339.252C103.789 339.421 103.648 339.837 103.817 340.18C103.986 340.524 104.402 340.665 104.745 340.495L108.409 338.688C109.352 338.223 109.627 337.007 108.977 336.181L103.079 328.685C102.843 328.384 102.407 328.332 102.106 328.569Z" fill="#111928"/>
<path fill-rule="evenodd" clip-rule="evenodd" d="M76.457 351.312C75.5573 350.834 75.0191 350.072 74.6012 349.174C74.4396 348.827 74.0274 348.677 73.6804 348.838C73.3335 349 73.1833 349.413 73.3449 349.76C73.8275 350.797 74.5347 351.86 75.8068 352.537C77.0722 353.209 78.7897 353.442 81.1811 353.052C81.5588 352.991 81.8152 352.634 81.7536 352.256C81.6921 351.878 81.336 351.622 80.9583 351.683C78.744 352.044 77.3634 351.794 76.457 351.312Z" fill="#111928"/>
<defs>
<linearGradient id="paint0_linear_82_16159" x1="634" y1="692" x2="554.523" y2="388.269" gradientUnits="userSpaceOnUse">
<stop stop-color="#8A9A46"/>
<stop offset="1" stop-color="white" stop-opacity="0"/>
</linearGradient>
<linearGradient id="paint1_linear_82_16159" x1="585" y1="234" x2="684.502" y2="-15.7372" gradientUnits="userSpaceOnUse">
<stop stop-color="#5059BC"/>
<stop offset="1" stop-color="#A4CAFE" stop-opacity="0"/>
</linearGradient>
<linearGradient id="paint2_linear_82_16159" x1="58.5" y1="509" x2="50.8104" y2="248.2" gradientUnits="userSpaceOnUse">
<stop stop-color="#5059BC"/>
<stop offset="1" stop-color="white" stop-opacity="0"/>
</linearGradient>
<linearGradient id="paint3_linear_82_16159" x1="449.053" y1="-5.54707" x2="406.5" y2="412.5" gradientUnits="userSpaceOnUse">
<stop stop-color="white"/>
<stop offset="1" stop-color="#8A9A46"/>
</linearGradient>
<linearGradient id="paint4_linear_82_16159" x1="847.518" y1="385.523" x2="711.561" y2="691.941" gradientUnits="userSpaceOnUse">
<stop stop-color="#111928"/>
<stop offset="1" stop-color="#111928" stop-opacity="0"/>
</linearGradient>
<linearGradient id="paint5_linear_82_16159" x1="608.439" y1="672.585" x2="675.733" y2="727.897" gradientUnits="userSpaceOnUse">
<stop stop-color="#111928"/>
<stop offset="1" stop-color="#111928" stop-opacity="0"/>
</linearGradient>
<linearGradient id="paint6_linear_82_16159" x1="736.64" y1="551.242" x2="685.315" y2="637.89" gradientUnits="userSpaceOnUse">
<stop stop-color="#A4CAFE"/>
<stop offset="1" stop-color="#A4CAFE" stop-opacity="0"/>
</linearGradient>
<linearGradient id="paint7_linear_82_16159" x1="574.482" y1="425.046" x2="500.903" y2="369.656" gradientUnits="userSpaceOnUse">
<stop stop-color="#7F270F"/>
<stop offset="1" stop-color="#7F270F" stop-opacity="0"/>
</linearGradient>
<linearGradient id="paint8_linear_82_16159" x1="345.798" y1="529.748" x2="574.576" y2="503.935" gradientUnits="userSpaceOnUse">
<stop stop-color="#A4CAFE"/>
<stop offset="1" stop-color="#A4CAFE" stop-opacity="0"/>
</linearGradient>
<linearGradient id="paint9_linear_82_16159" x1="638.929" y1="415.339" x2="618.124" y2="563.818" gradientUnits="userSpaceOnUse">
<stop stop-color="#A4CAFE"/>
<stop offset="1" stop-color="#A4CAFE" stop-opacity="0"/>
</linearGradient>
<linearGradient id="paint10_linear_82_16159" x1="701.991" y1="403.551" x2="717.045" y2="442.004" gradientUnits="userSpaceOnUse">
<stop stop-color="#7F270F"/>
<stop offset="1" stop-color="#7F270F" stop-opacity="0"/>
</linearGradient>
<linearGradient id="paint11_linear_82_16159" x1="661.106" y1="189.988" x2="655.969" y2="143.359" gradientUnits="userSpaceOnUse">
<stop stop-color="#111928"/>
<stop offset="1" stop-color="#111928" stop-opacity="0"/>
</linearGradient>
<linearGradient id="paint12_linear_82_16159" x1="689.518" y1="156.705" x2="758.136" y2="186.492" gradientUnits="userSpaceOnUse">
<stop stop-color="#111928"/>
<stop offset="1" stop-color="#111928" stop-opacity="0"/>
</linearGradient>
<linearGradient id="paint13_linear_82_16159" x1="873.851" y1="305.09" x2="618.779" y2="185.249" gradientUnits="userSpaceOnUse">
<stop stop-color="#7F270F"/>
<stop offset="1" stop-color="#7F270F" stop-opacity="0"/>
</linearGradient>
<linearGradient id="paint14_linear_82_16159" x1="654.175" y1="60.3247" x2="707.668" y2="69.3966" gradientUnits="userSpaceOnUse">
<stop stop-color="#7F270F"/>
<stop offset="1" stop-color="#7F270F" stop-opacity="0"/>
</linearGradient>
<linearGradient id="paint15_linear_82_16159" x1="26.2372" y1="624.752" x2="86.7172" y2="252.578" gradientUnits="userSpaceOnUse">
<stop stop-color="#7F270F"/>
<stop offset="1" stop-color="#7F270F" stop-opacity="0"/>
</linearGradient>
<linearGradient id="paint16_linear_82_16159" x1="261.947" y1="334.212" x2="260.999" y2="221.5" gradientUnits="userSpaceOnUse">
<stop stop-color="#F26DF9"/>
<stop offset="1" stop-color="#A4CAFE" stop-opacity="0"/>
</linearGradient>
<linearGradient id="paint17_linear_82_16159" x1="261.254" y1="149.771" x2="261.254" y2="289.142" gradientUnits="userSpaceOnUse">
<stop stop-color="#F9FAFB"/>
<stop offset="1" stop-color="#F9FAFB" stop-opacity="0"/>
</linearGradient>
<linearGradient id="paint18_linear_82_16159" x1="-9.70175" y1="124.116" x2="261.351" y2="303.558" gradientUnits="userSpaceOnUse">
<stop stop-color="#1B5BD9"/>
<stop offset="1" stop-color="#1B5BD9" stop-opacity="0"/>
</linearGradient>
<linearGradient id="paint19_linear_82_16159" x1="101.175" y1="626.128" x2="56.6128" y2="414.894" gradientUnits="userSpaceOnUse">
<stop stop-color="#7F270F"/>
<stop offset="1" stop-color="#7F270F" stop-opacity="0"/>
</linearGradient>
<linearGradient id="paint20_linear_82_16159" x1="101.868" y1="322.425" x2="105.337" y2="497.852" gradientUnits="userSpaceOnUse">
<stop stop-color="#A4CAFE"/>
<stop offset="1" stop-color="#A4CAFE" stop-opacity="0"/>
</linearGradient>
<linearGradient id="paint21_linear_82_16159" x1="142.061" y1="438.914" x2="144.829" y2="409.162" gradientUnits="userSpaceOnUse">
<stop stop-color="#A4CAFE"/>
<stop offset="1" stop-color="#A4CAFE" stop-opacity="0"/>
</linearGradient>
<linearGradient id="paint22_linear_82_16159" x1="128.939" y1="354.286" x2="86.5785" y2="377.79" gradientUnits="userSpaceOnUse">
<stop stop-color="#7F270F"/>
<stop offset="1" stop-color="#7F270F" stop-opacity="0"/>
</linearGradient>
</defs>
</svg>
